<svg xmlns="http://www.w3.org/2000/svg" viewBox="0 0 640 640" role="img" aria-labelledby="title desc">
  <title>Cloudera Data Analyst Professional Certificate</title>
  <desc>SQL • BI • Big Data Analysis</desc>
  <defs>
    <linearGradient id="bg" x1="0" y1="0" x2="1" y2="1">
      <stop offset="0%" stop-color="#06B6D4"/>
      <stop offset="100%" stop-color="#7C3AED"/>
    </linearGradient>
    <linearGradient id="panel" x1="0" y1="0" x2="1" y2="1">
      <stop offset="0%" stop-color="#F8FAFC"/>
      <stop offset="100%" stop-color="#EEF2FF"/>
    </linearGradient>
  </defs>
  <rect width="640" height="640" rx="42" fill="url(#panel)"/>
  <rect x="36" y="36" width="568" height="568" rx="34" fill="white" stroke="#E2E8F0" stroke-width="4"/>
  <rect x="68" y="72" width="172" height="38" rx="19" fill="#06B6D4" opacity="0.12"/>
  <text x="154" y="96" text-anchor="middle" font-family="Arial, Helvetica, sans-serif" font-size="18" font-weight="700" fill="#06B6D4">Professional Certificate</text>
  <g transform="translate(0 0)">
    <rect x="46" y="118" width="216" height="154" rx="30" fill="url(#bg)"/>
    
    <rect x="88" y="128" width="134" height="88" rx="22" fill="white" opacity="0.98"/>
    <path d="M108 190h94" stroke="#7C3AED" stroke-width="10" stroke-linecap="round"/>
    <rect x="118" y="162" width="16" height="28" rx="8" fill="#06B6D4"/>
    <rect x="148" y="150" width="16" height="40" rx="8" fill="#7C3AED"/>
    <rect x="178" y="140" width="16" height="50" rx="8" fill="#06B6D4" opacity="0.78"/>
    <circle cx="124" cy="150" r="7" fill="#06B6D4" opacity="0.3"/>
    
  </g>
  <text x="320" y="354" text-anchor="middle" font-family="Arial, Helvetica, sans-serif" font-size="36" font-weight="700" fill="#0F172A">
    <tspan x="320" dy="0">Cloudera Data Analyst</tspan><tspan x="320" dy="40">Professional Certificate</tspan>
  </text>
  <text x="320" y="454" text-anchor="middle" font-family="Arial, Helvetica, sans-serif" font-size="22" font-weight="400" fill="#475569">SQL • BI • Big Data Analysis</text>
  <line x1="124" y1="514" x2="516" y2="514" stroke="#E2E8F0" stroke-width="3"/>
  <text x="320" y="566" text-anchor="middle" font-family="Arial, Helvetica, sans-serif" font-size="28" font-weight="700" fill="#06B6D4">Cloudera</text>
</svg>
