<svg xmlns="http://www.w3.org/2000/svg" viewBox="0 0 640 640" role="img" aria-labelledby="title desc">
  <title>Google Business Intelligence Certificate</title>
  <desc>Dashboards • BI • Storytelling</desc>
  <defs>
    <linearGradient id="bg" x1="0" y1="0" x2="1" y2="1">
      <stop offset="0%" stop-color="#4285F4"/>
      <stop offset="100%" stop-color="#34A853"/>
    </linearGradient>
    <linearGradient id="panel" x1="0" y1="0" x2="1" y2="1">
      <stop offset="0%" stop-color="#F8FAFC"/>
      <stop offset="100%" stop-color="#EEF2FF"/>
    </linearGradient>
  </defs>
  <rect width="640" height="640" rx="42" fill="url(#panel)"/>
  <rect x="36" y="36" width="568" height="568" rx="34" fill="white" stroke="#E2E8F0" stroke-width="4"/>
  <rect x="68" y="72" width="172" height="38" rx="19" fill="#4285F4" opacity="0.12"/>
  <text x="154" y="96" text-anchor="middle" font-family="Arial, Helvetica, sans-serif" font-size="18" font-weight="700" fill="#4285F4">Professional Certificate</text>
  <g transform="translate(0 0)">
    <rect x="46" y="118" width="216" height="154" rx="30" fill="url(#bg)"/>
    
    <rect x="86" y="132" width="132" height="84" rx="18" fill="white" opacity="0.98"/>
    <path d="M106 190h92" stroke="#34A853" stroke-width="10" stroke-linecap="round"/>
    <path d="M114 176l22-22 18 15 34-31" fill="none" stroke="#4285F4" stroke-width="12" stroke-linecap="round" stroke-linejoin="round"/>
    <circle cx="114" cy="176" r="8" fill="#4285F4"/>
    <circle cx="154" cy="169" r="8" fill="#34A853"/>
    <circle cx="188" cy="138" r="8" fill="white" stroke="#4285F4" stroke-width="6"/>
    
  </g>
  <text x="320" y="354" text-anchor="middle" font-family="Arial, Helvetica, sans-serif" font-size="36" font-weight="700" fill="#0F172A">
    <tspan x="320" dy="0">Google Business</tspan><tspan x="320" dy="40">Intelligence Certificate</tspan>
  </text>
  <text x="320" y="454" text-anchor="middle" font-family="Arial, Helvetica, sans-serif" font-size="22" font-weight="400" fill="#475569">Dashboards • BI • Storytelling</text>
  <line x1="124" y1="514" x2="516" y2="514" stroke="#E2E8F0" stroke-width="3"/>
  <text x="320" y="566" text-anchor="middle" font-family="Arial, Helvetica, sans-serif" font-size="28" font-weight="700" fill="#4285F4">Google</text>
</svg>
