<svg xmlns="http://www.w3.org/2000/svg" viewBox="0 0 640 640" role="img" aria-labelledby="title desc">
  <title>IBM Data Science Professional Certificate</title>
  <desc>Python • SQL • ML • Visualization</desc>
  <defs>
    <linearGradient id="bg" x1="0" y1="0" x2="1" y2="1">
      <stop offset="0%" stop-color="#0F62FE"/>
      <stop offset="100%" stop-color="#8A3FFC"/>
    </linearGradient>
    <linearGradient id="panel" x1="0" y1="0" x2="1" y2="1">
      <stop offset="0%" stop-color="#F8FAFC"/>
      <stop offset="100%" stop-color="#EEF2FF"/>
    </linearGradient>
  </defs>
  <rect width="640" height="640" rx="42" fill="url(#panel)"/>
  <rect x="36" y="36" width="568" height="568" rx="34" fill="white" stroke="#E2E8F0" stroke-width="4"/>
  <rect x="68" y="72" width="172" height="38" rx="19" fill="#0F62FE" opacity="0.12"/>
  <text x="154" y="96" text-anchor="middle" font-family="Arial, Helvetica, sans-serif" font-size="18" font-weight="700" fill="#0F62FE">Professional Certificate</text>
  <g transform="translate(0 0)">
    <rect x="46" y="118" width="216" height="154" rx="30" fill="url(#bg)"/>
    
    <rect x="86" y="132" width="132" height="84" rx="18" fill="white" opacity="0.98"/>
    <rect x="98" y="146" width="20" height="58" rx="10" fill="#0F62FE" opacity="0.92"/>
    <rect x="130" y="162" width="20" height="42" rx="10" fill="#8A3FFC" opacity="0.92"/>
    <rect x="162" y="152" width="20" height="52" rx="10" fill="#0F62FE" opacity="0.72"/>
    <path d="M103 118c22-28 58-30 98-8" fill="none" stroke="white" stroke-width="12" stroke-linecap="round" opacity="0.92"/>
    
  </g>
  <text x="320" y="354" text-anchor="middle" font-family="Arial, Helvetica, sans-serif" font-size="36" font-weight="700" fill="#0F172A">
    <tspan x="320" dy="0">IBM Data Science</tspan><tspan x="320" dy="40">Professional Certificate</tspan>
  </text>
  <text x="320" y="454" text-anchor="middle" font-family="Arial, Helvetica, sans-serif" font-size="22" font-weight="400" fill="#475569">Python • SQL • ML • Visualization</text>
  <line x1="124" y1="514" x2="516" y2="514" stroke="#E2E8F0" stroke-width="3"/>
  <text x="320" y="566" text-anchor="middle" font-family="Arial, Helvetica, sans-serif" font-size="28" font-weight="700" fill="#0F62FE">IBM</text>
</svg>
