<svg width="320" height="160" viewBox="0 0 320 160" fill="none" xmlns="http://www.w3.org/2000/svg">
  <rect width="320" height="160" rx="24" fill="#1D3557"/>
  <rect x="16" y="16" width="288" height="128" rx="18" fill="#F1FAEE" fill-opacity="0.08" stroke="#A8DADC" stroke-opacity="0.45"/>
  <circle cx="66" cy="80" r="32" fill="#A8DADC"/>
  <path d="M50 89.5V70.5H62.2C69.1 70.5 73 74.1 73 79.8C73 85.8 69 89.5 62.2 89.5H50ZM57 84.1H61.4C64.8 84.1 66.8 82.5 66.8 79.8C66.8 77.4 64.8 75.9 61.4 75.9H57V84.1Z" fill="#1D3557"/>
  <path d="M78.4 89.5V70.5H95.8V75.7H85.3V78H94.7V82.7H85.3V84.3H96.1V89.5H78.4Z" fill="#1D3557"/>
  <text x="116" y="70" fill="white" font-family="Arial, Helvetica, sans-serif" font-size="24" font-weight="700">DataScience</text>
  <text x="116" y="100" fill="#A8DADC" font-family="Arial, Helvetica, sans-serif" font-size="24" font-weight="700">Middle East</text>
  <text x="116" y="124" fill="#F1FAEE" font-family="Arial, Helvetica, sans-serif" font-size="13" letter-spacing="2">ANALYTICS • DATA • AI</text>
</svg>
